<svg width="24" height="24" viewBox="0 0 24 24" fill="none" xmlns="http://www.w3.org/2000/svg">
<path d="M0.369194 21.9081C-0.0886239 22.3514 -0.125737 23.1102 0.286298 23.6028C0.698334 24.0954 1.40349 24.1353 1.86131 23.692L12 13.8737L22.1387 23.692C22.5965 24.1353 23.3017 24.0954 23.7137 23.6028C24.1257 23.1102 24.0886 22.3514 23.6308 21.9081L13.3995 12L23.6308 2.09199C24.0886 1.64863 24.1257 0.889887 23.7137 0.397275C23.3017 -0.0953374 22.5965 -0.135271 22.1387 0.308079L12 10.1264L1.86131 0.308058C1.40349 -0.135293 0.698334 -0.0953602 0.286299 0.397253C-0.125737 0.889864 -0.0886237 1.64861 0.369194 2.09196L10.6005 12L0.369194 21.9081Z" fill="white"/>
</svg>
