<svg width="52" height="59" viewBox="0 0 52 59" fill="none" xmlns="http://www.w3.org/2000/svg">
<path d="M52 54.7857C52 57.1132 50.0865 59 47.7261 59H11.7535C9.39302 59 7.47949 57.1132 7.47949 54.7857V4.21429C7.47949 1.8868 9.39302 0 11.7535 0H37.3973L52 14.75V54.7857Z" fill="#E2E6E9"/>
<path d="M52 14.75L37.3972 0V11.2381C37.3972 13.1777 38.9918 14.75 40.9589 14.75H52Z" fill="#AFB8BF"/>
<path d="M41.3154 14.75H52.0004V24.5833L41.3154 14.75Z" fill="#C9D3DB"/>
<rect y="27.3928" width="44.8767" height="22.4762" rx="5" fill="#216DC7"/>
<path d="M5.34277 43.1772V34.1889H8.03488C8.84042 34.1889 9.55414 34.3659 10.176 34.7198C10.8021 35.0737 11.2863 35.5758 11.6285 36.2261C11.9708 36.8763 12.1419 37.6212 12.1419 38.4608V38.9114C12.1419 39.7634 11.9687 40.5124 11.6223 41.1585C11.28 41.8047 10.7896 42.3026 10.151 42.6524C9.51657 43.0023 8.78825 43.1772 7.96601 43.1772H5.34277ZM6.92673 35.4482V41.9302H7.95975C8.79033 41.9302 9.42684 41.675 9.86926 41.1647C10.3159 40.6503 10.5433 39.9136 10.5517 38.9547V38.4546C10.5517 37.4792 10.3367 36.7343 9.90683 36.2199C9.47692 35.7055 8.85294 35.4482 8.03488 35.4482H6.92673Z" fill="white"/>
<path d="M21.6356 38.9176C21.6356 39.7983 21.4812 40.5721 21.1723 41.2388C20.8635 41.9014 20.421 42.4117 19.8451 42.7697C19.2733 43.1237 18.6138 43.3006 17.8667 43.3006C17.1279 43.3006 16.4685 43.1237 15.8883 42.7697C15.3123 42.4117 14.8657 41.9034 14.5485 41.2449C14.2355 40.5865 14.0769 39.8271 14.0727 38.967V38.4608C14.0727 37.5842 14.2292 36.8105 14.5422 36.1396C14.8595 35.4688 15.304 34.9564 15.8758 34.6025C16.4518 34.2445 17.1112 34.0654 17.8542 34.0654C18.5971 34.0654 19.2545 34.2424 19.8263 34.5963C20.4023 34.9461 20.8468 35.4524 21.1598 36.115C21.4728 36.7734 21.6315 37.541 21.6356 38.4176V38.9176ZM20.0517 38.4485C20.0517 37.4525 19.8597 36.6891 19.4757 36.1582C19.0959 35.6273 18.5554 35.3618 17.8542 35.3618C17.1697 35.3618 16.6333 35.6273 16.2452 36.1582C15.8612 36.685 15.665 37.4319 15.6567 38.3991V38.9176C15.6567 39.9053 15.8507 40.6688 16.2389 41.2079C16.6312 41.747 17.1738 42.0166 17.8667 42.0166C18.5679 42.0166 19.1063 41.7532 19.4819 41.2264C19.8618 40.6996 20.0517 39.93 20.0517 38.9176V38.4485Z" fill="white"/>
<path d="M30.8101 40.251C30.7182 41.21 30.3593 41.959 29.7332 42.4981C29.1071 43.0331 28.2745 43.3006 27.2352 43.3006C26.509 43.3006 25.8683 43.1319 25.3132 42.7944C24.7622 42.4528 24.3365 41.9693 24.036 41.3437C23.7355 40.7182 23.5789 39.9918 23.5664 39.1646V38.325C23.5664 37.4772 23.7188 36.7302 24.0235 36.0841C24.3281 35.438 24.7643 34.94 25.3319 34.5902C25.9038 34.2403 26.5632 34.0654 27.3103 34.0654C28.3162 34.0654 29.1259 34.335 29.7395 34.8741C30.353 35.4133 30.7099 36.1746 30.8101 37.1582H29.2324C29.1572 36.5121 28.9652 36.047 28.6564 35.7631C28.3517 35.475 27.903 35.331 27.3103 35.331C26.6216 35.331 26.0916 35.5799 25.7201 36.0779C25.3528 36.5718 25.165 37.2982 25.1566 38.2571V39.0534C25.1566 40.0247 25.3319 40.7655 25.6825 41.2758C26.0373 41.7861 26.5549 42.0413 27.2352 42.0413C27.8571 42.0413 28.3246 41.9034 28.6376 41.6277C28.9506 41.3519 29.1489 40.8931 29.2324 40.251H30.8101Z" fill="white"/>
<path d="M36.0089 37.436L37.9247 34.1889H39.7528L36.9981 38.646L39.8154 43.1772H37.9685L36.0089 39.8807L34.0431 43.1772H32.2024L35.026 38.646L32.265 34.1889H34.0932L36.0089 37.436Z" fill="white"/>
</svg>
