<svg width="10" height="10" viewBox="0 0 10 10" fill="none" xmlns="http://www.w3.org/2000/svg">
<path d="M0.153831 9.12836C-0.0369266 9.31309 -0.0523906 9.62923 0.119291 9.83449C0.290973 10.0397 0.584787 10.0564 0.775545 9.87165L5 5.78069L9.22445 9.87166C9.41521 10.0564 9.70903 10.0398 9.88071 9.8345C10.0524 9.62924 10.0369 9.3131 9.84617 9.12837L5.58311 5.00001L9.84617 0.871661C10.0369 0.686931 10.0524 0.370786 9.88071 0.165531C9.70903 -0.0397239 9.41521 -0.0563631 9.22445 0.128366L5 4.21933L0.775545 0.128357C0.584787 -0.0563721 0.290973 -0.0397334 0.119291 0.165522C-0.0523904 0.370777 -0.0369266 0.686922 0.153831 0.871651L4.41689 5L0.153831 9.12836Z" fill="#333333"/>
</svg>
